<?xml version="1.0" encoding="utf-8"?>
<!-- Generator: Adobe Illustrator 25.4.1, SVG Export Plug-In . SVG Version: 6.00 Build 0)  -->
<svg version="1.1" xmlns="http://www.w3.org/2000/svg" xmlns:xlink="http://www.w3.org/1999/xlink" x="0px" y="0px"
	 viewBox="0 0 256 256" style="enable-background:new 0 0 256 256;" xml:space="preserve">
<style type="text/css">
	.st0{display:none;}
	.st1{display:inline;stroke:#000000;stroke-miterlimit:10;}
	.st2{display:inline;fill-rule:evenodd;clip-rule:evenodd;fill:#FCBC19;}
	.st3{display:inline;fill-rule:evenodd;clip-rule:evenodd;fill:url(#SVGID_1_);filter:url(#Adobe_OpacityMaskFilter);}
	.st4{display:inline;mask:url(#mask0_501_11930_00000081649918554152100850000016654729337992308386_);}
	.st5{fill-rule:evenodd;clip-rule:evenodd;fill:#A6A1A1;}
	.st6{display:inline;fill-rule:evenodd;clip-rule:evenodd;fill:url(#SVGID_00000083076651159012019270000000742235660807223441_);}
	.st7{display:inline;fill-rule:evenodd;clip-rule:evenodd;fill:url(#SVGID_00000032650793171833390320000003362743717898905784_);}
	.st8{display:inline;fill-rule:evenodd;clip-rule:evenodd;fill:url(#SVGID_00000057147921739082019350000005521894665648800953_);}
	.st9{fill-rule:evenodd;clip-rule:evenodd;fill:#E41220;}
	
		.st10{fill-rule:evenodd;clip-rule:evenodd;fill:url(#SVGID_00000150789558214784760820000010626228307693879204_);filter:url(#Adobe_OpacityMaskFilter_00000025441010119705487930000003455631426923943590_);}
	.st11{display:none;mask:url(#mask0_501_11930_00000142880491604251906030000016884523780071507333_);}
	.st12{display:inline;fill-rule:evenodd;clip-rule:evenodd;fill:#A6A1A1;}
	.st13{fill-rule:evenodd;clip-rule:evenodd;fill:url(#SVGID_00000011724561794726494480000005351157817425796515_);}
	.st14{fill-rule:evenodd;clip-rule:evenodd;fill:url(#SVGID_00000043453736612730469020000010870758030433235861_);}
	.st15{fill-rule:evenodd;clip-rule:evenodd;fill:url(#SVGID_00000147900798444067349800000014028116155177058212_);}
	.st16{display:inline;fill-rule:evenodd;clip-rule:evenodd;fill:#E72D5F;}
	.st17{display:inline;fill:#3CB395;}
	.st18{display:inline;fill-rule:evenodd;clip-rule:evenodd;fill:#3CB395;}
	.st19{fill:#FFFFFF;}
</style>
<g id="Layer_2" class="st0">
	<rect x="5.7" y="7.6" class="st1" width="247.5" height="228.1"/>
</g>
<g id="Layer_1" class="st0">
	<path class="st2" d="M104.4,42.4c-4.4-5.3-10.9-8.4-17.8-8.4H29c-6.6,0-12,5.4-12,12v12.1v10.1V160c0,6.6,5.4,12,12,12h200
		c6.6,0,12-5.4,12-12V70.1c0-6.6-5.4-12-12-12H117.4L104.4,42.4z"/>
	<defs>
		<filter id="Adobe_OpacityMaskFilter" filterUnits="userSpaceOnUse" x="17" y="62" width="224" height="110">
			<feColorMatrix  type="matrix" values="1 0 0 0 0  0 1 0 0 0  0 0 1 0 0  0 0 0 1 0"/>
		</filter>
	</defs>
	
		<mask maskUnits="userSpaceOnUse" x="17" y="62" width="224" height="110" id="mask0_501_11930_00000081649918554152100850000016654729337992308386_" style="display:inline;">
		
			<linearGradient id="SVGID_1_" gradientUnits="userSpaceOnUse" x1="32.5816" y1="239.5494" x2="213.3495" y2="58.4074" gradientTransform="matrix(1 0 0 -1 0 258)">
			<stop  offset="0" style="stop-color:#05815D"/>
			<stop  offset="1" style="stop-color:#0C575F"/>
		</linearGradient>
		<path style="fill-rule:evenodd;clip-rule:evenodd;fill:url(#SVGID_1_);filter:url(#Adobe_OpacityMaskFilter);" d="M104.4,42.4
			c-4.4-5.3-10.9-8.4-17.8-8.4H29c-6.6,0-12,5.4-12,12v12.1v10.1V160c0,6.6,5.4,12,12,12h200c6.6,0,12-5.4,12-12V70.1
			c0-6.6-5.4-12-12-12H117.4L104.4,42.4z"/>
	</mask>
	<g class="st4">
		<g>
			<path class="st5" d="M92.8,74c5,0,9.8-1.6,13.8-4.6l9.9-7.4H229c6.6,0,12,5.4,12,12v34v52c0,6.6-5.4,12-12,12H29
				c-6.6,0-12-5.4-12-12v-52V86c0-6.6,5.4-12,12-12h58H92.8z"/>
		</g>
	</g>
	
		<linearGradient id="SVGID_00000103252459152919780030000008387170886684791221_" gradientUnits="userSpaceOnUse" x1="17" y1="196" x2="241" y2="48" gradientTransform="matrix(1 0 0 -1 0 258)">
		<stop  offset="0" style="stop-color:#FFE7A2"/>
		<stop  offset="0.9531" style="stop-color:#FFCB3D"/>
	</linearGradient>
	
		<path style="display:inline;fill-rule:evenodd;clip-rule:evenodd;fill:url(#SVGID_00000103252459152919780030000008387170886684791221_);" d="
		M92.8,74c5,0,9.8-1.6,13.8-4.6l9.9-7.4H229c6.6,0,12,5.4,12,12v34v90c0,6.6-5.4,12-12,12H29c-6.6,0-12-5.4-12-12v-90V86
		c0-6.6,5.4-12,12-12h58H92.8z"/>
	
		<linearGradient id="SVGID_00000123421596517307162040000003274753783812613252_" gradientUnits="userSpaceOnUse" x1="16.9254" y1="57.3174" x2="240.9429" y2="54.8172" gradientTransform="matrix(1 0 0 -1 0 258)">
		<stop  offset="0" style="stop-color:#FFCF4E"/>
		<stop  offset="1" style="stop-color:#FFB504"/>
	</linearGradient>
	
		<path style="display:inline;fill-rule:evenodd;clip-rule:evenodd;fill:url(#SVGID_00000123421596517307162040000003274753783812613252_);" d="
		M17,194v4c0,6.6,5.4,12,12,12h200c6.6,0,12-5.4,12-12v-4c0,6.6-5.4,12-12,12H29C22.4,206,17,200.6,17,194z"/>
	
		<linearGradient id="SVGID_00000153706808302979150410000005695908450656911749_" gradientUnits="userSpaceOnUse" x1="17" y1="182" x2="241" y2="182" gradientTransform="matrix(1 0 0 -1 0 258)">
		<stop  offset="0" style="stop-color:#FFECB5"/>
		<stop  offset="1" style="stop-color:#FFDE82"/>
	</linearGradient>
	
		<path style="display:inline;fill-rule:evenodd;clip-rule:evenodd;fill:url(#SVGID_00000153706808302979150410000005695908450656911749_);" d="
		M106.6,69.4c-4,3-8.8,4.6-13.8,4.6H87H29c-6.6,0-12,5.4-12,12v4c0-6.6,5.4-12,12-12h58h5.8c5,0,9.8-1.6,13.8-4.6l9.9-7.4H229
		c6.6,0,12,5.4,12,12v-4c0-6.6-5.4-12-12-12H116.5L106.6,69.4z"/>
</g>
<g id="Layer_1_copy">
	<path class="st9" d="M104.4,42.4c-4.4-5.3-10.9-8.4-17.8-8.4H29c-6.6,0-12,5.4-12,12v12.1v10.1V160c0,6.6,5.4,12,12,12h200
		c6.6,0,12-5.4,12-12V70.1c0-6.6-5.4-12-12-12H117.4L104.4,42.4z"/>
	<defs>
		
			<filter id="Adobe_OpacityMaskFilter_00000023970389981491989050000003368489938576120994_" filterUnits="userSpaceOnUse" x="17" y="62" width="224" height="110">
			<feColorMatrix  type="matrix" values="1 0 0 0 0  0 1 0 0 0  0 0 1 0 0  0 0 0 1 0"/>
		</filter>
	</defs>
	
		<mask maskUnits="userSpaceOnUse" x="17" y="62" width="224" height="110" id="mask0_501_11930_00000142880491604251906030000016884523780071507333_">
		
			<linearGradient id="SVGID_00000083053353427323925810000009763587812582465921_" gradientUnits="userSpaceOnUse" x1="32.5816" y1="239.5494" x2="213.3495" y2="58.4074" gradientTransform="matrix(1 0 0 -1 0 258)">
			<stop  offset="0" style="stop-color:#05815D"/>
			<stop  offset="1" style="stop-color:#0C575F"/>
		</linearGradient>
		
			<path style="fill-rule:evenodd;clip-rule:evenodd;fill:url(#SVGID_00000083053353427323925810000009763587812582465921_);filter:url(#Adobe_OpacityMaskFilter_00000023970389981491989050000003368489938576120994_);" d="
			M104.4,42.4c-4.4-5.3-10.9-8.4-17.8-8.4H29c-6.6,0-12,5.4-12,12v12.1v10.1V160c0,6.6,5.4,12,12,12h200c6.6,0,12-5.4,12-12V70.1
			c0-6.6-5.4-12-12-12H117.4L104.4,42.4z"/>
	</mask>
	<g class="st11">
		<g>
			<path class="st12" d="M92.8,74c5,0,9.8-1.6,13.8-4.6l9.9-7.4H229c6.6,0,12,5.4,12,12v34v52c0,6.6-5.4,12-12,12H29
				c-6.6,0-12-5.4-12-12v-52V86c0-6.6,5.4-12,12-12h58H92.8z"/>
		</g>
	</g>
	
		<linearGradient id="SVGID_00000044145417460419992370000013057305295240555699_" gradientUnits="userSpaceOnUse" x1="17" y1="196" x2="241" y2="48" gradientTransform="matrix(1 0 0 -1 0 258)">
		<stop  offset="0" style="stop-color:#E72D5F"/>
		<stop  offset="1" style="stop-color:#B80839"/>
	</linearGradient>
	<path style="fill-rule:evenodd;clip-rule:evenodd;fill:url(#SVGID_00000044145417460419992370000013057305295240555699_);" d="
		M92.8,74c5,0,9.8-1.6,13.8-4.6l9.9-7.4H229c6.6,0,12,5.4,12,12v34v90c0,6.6-5.4,12-12,12H29c-6.6,0-12-5.4-12-12v-90V86
		c0-6.6,5.4-12,12-12h58H92.8z"/>
	
		<linearGradient id="SVGID_00000182502474502855411070000010738079507202143930_" gradientUnits="userSpaceOnUse" x1="16.9254" y1="57.3174" x2="240.9429" y2="54.8172" gradientTransform="matrix(1 0 0 -1 0 258)">
		<stop  offset="0" style="stop-color:#6A0012"/>
		<stop  offset="1" style="stop-color:#6A0012"/>
	</linearGradient>
	<path style="fill-rule:evenodd;clip-rule:evenodd;fill:url(#SVGID_00000182502474502855411070000010738079507202143930_);" d="
		M17,194v4c0,6.6,5.4,12,12,12h200c6.6,0,12-5.4,12-12v-4c0,6.6-5.4,12-12,12H29C22.4,206,17,200.6,17,194z"/>
	
		<linearGradient id="SVGID_00000086689836148496969710000013045154778323568561_" gradientUnits="userSpaceOnUse" x1="17" y1="76" x2="241" y2="76">
		<stop  offset="5.586592e-03" style="stop-color:#F37B92"/>
		<stop  offset="1" style="stop-color:#F4A0B8"/>
	</linearGradient>
	<path style="fill-rule:evenodd;clip-rule:evenodd;fill:url(#SVGID_00000086689836148496969710000013045154778323568561_);" d="
		M106.6,69.4c-4,3-8.8,4.6-13.8,4.6H87H29c-6.6,0-12,5.4-12,12v4c0-6.6,5.4-12,12-12h58h5.8c5,0,9.8-1.6,13.8-4.6l9.9-7.4H229
		c6.6,0,12,5.4,12,12v-4c0-6.6-5.4-12-12-12H116.5L106.6,69.4z"/>
	<g id="Layer_4" class="st0">
		<path class="st16" d="M97.5,155.1H88c-1.4,0-2.6-1.1-2.6-2.6v-24.2c0-1.4,1.1-2.6,2.6-2.6h9.5c1.4,0,2.6,1.1,2.6,2.6v24.2
			C100,154,98.9,155.1,97.5,155.1z"/>
		<path class="st16" d="M132.8,169.1h-9.5c-1.4,0-2.6-1.1-2.6-2.6v-50c0-1.4,1.1-2.6,2.6-2.6h9.5c1.4,0,2.6,1.1,2.6,2.6v50
			C135.3,168,134.2,169.1,132.8,169.1z"/>
		<path class="st17" d="M115.1,147.1h-9.5c-1.4,0-2.6-1.1-2.6-2.6v-40.5c0-1.4,1.1-2.6,2.6-2.6h9.5c1.4,0,2.6,1.1,2.6,2.6v40.5
			C117.7,146,116.5,147.1,115.1,147.1z"/>
		<path class="st17" d="M150.4,163.3h-9.5c-1.4,0-2.6-1.1-2.6-2.6v-27.2c0-1.4,1.1-2.6,2.6-2.6h9.5c1.4,0,2.6,1.1,2.6,2.6v27.2
			C153,162.2,151.8,163.3,150.4,163.3z"/>
		<path class="st17" d="M168,145.3h-9.5c-1.4,0-2.6-1.1-2.6-2.6v-35.1c0-1.4,1.1-2.6,2.6-2.6h9.5c1.4,0,2.6,1.1,2.6,2.6v35.1
			C170.6,144.1,169.5,145.3,168,145.3z"/>
		<rect x="91.3" y="118.1" class="st16" width="2.9" height="46.3"/>
		<rect x="126.6" y="108.5" class="st16" width="2.9" height="71.9"/>
		<rect x="108.9" y="83.6" class="st18" width="2.9" height="69"/>
		<rect x="144.2" y="112.6" class="st18" width="2.9" height="69"/>
		<rect x="161.8" y="100.4" class="st18" width="2.9" height="51"/>
	</g>
	<g id="Layer_5">
		<path class="st19" d="M130.5,147.3h-22.1c-0.8,0-1.4-0.6-1.4-1.4v-26.4c0-0.8,0.6-1.4,1.4-1.4h10.1c6.5,0,10.4,3.5,10.4,9.4
			c0,3.8-1.8,6.7-4.8,8.1c-0.2,0.1-0.3,0.3-0.1,0.5l7.2,9.4C131.9,146.2,131.4,147.3,130.5,147.3L130.5,147.3z"/>
		<path class="st19" d="M146.2,147.3h-10.4c-0.8,0-1.4-0.6-1.4-1.4v-26.4c0-0.8,0.6-1.4,1.4-1.4h9.7c7.5,0,9.1,4.4,9.1,8.1
			c0,2-0.5,3.5-1.4,4.8c-0.1,0.2-0.1,0.4,0.1,0.5c2.5,1.2,3.8,3.7,3.8,7.2C157,144.1,153,147.3,146.2,147.3L146.2,147.3z"/>
	</g>
</g>
</svg>
