<?xml version="1.0" encoding="utf-8"?>
<!-- Generator: Adobe Illustrator 25.4.1, SVG Export Plug-In . SVG Version: 6.00 Build 0)  -->
<svg version="1.1" xmlns="http://www.w3.org/2000/svg" xmlns:xlink="http://www.w3.org/1999/xlink" x="0px" y="0px"
	 viewBox="0 0 256 256" style="enable-background:new 0 0 256 256;" xml:space="preserve">
<style type="text/css">
	.st0{display:none;}
	.st1{display:inline;stroke:#000000;stroke-miterlimit:10;}
	.st2{display:inline;fill-rule:evenodd;clip-rule:evenodd;fill:#FCBC19;}
	.st3{display:inline;fill-rule:evenodd;clip-rule:evenodd;fill:url(#SVGID_1_);filter:url(#Adobe_OpacityMaskFilter);}
	.st4{display:inline;mask:url(#mask0_501_11930_00000081649918554152100850000016654729337992308386_);}
	.st5{fill-rule:evenodd;clip-rule:evenodd;fill:#A6A1A1;}
	.st6{display:inline;fill-rule:evenodd;clip-rule:evenodd;fill:url(#SVGID_00000034774318315917112910000005152516600490540426_);}
	.st7{display:inline;fill-rule:evenodd;clip-rule:evenodd;fill:url(#SVGID_00000104687454507985881920000016134957085812388030_);}
	.st8{display:inline;fill-rule:evenodd;clip-rule:evenodd;fill:url(#SVGID_00000136411522558597730850000001744648552358328498_);}
	.st9{fill-rule:evenodd;clip-rule:evenodd;fill:#081D34;}
	
		.st10{fill-rule:evenodd;clip-rule:evenodd;fill:url(#SVGID_00000070838422688112901470000013979216185306071735_);filter:url(#Adobe_OpacityMaskFilter_00000096750714473806282410000009391266365799424667_);}
	.st11{display:none;mask:url(#mask0_501_11930_00000142880491604251906030000016884523780071507333_);}
	.st12{display:inline;fill-rule:evenodd;clip-rule:evenodd;fill:#A6A1A1;}
	.st13{fill-rule:evenodd;clip-rule:evenodd;fill:url(#SVGID_00000136397765602396580120000016332131060569933483_);}
	.st14{fill-rule:evenodd;clip-rule:evenodd;fill:url(#SVGID_00000031176969833477451030000017558319465426176392_);}
	.st15{fill-rule:evenodd;clip-rule:evenodd;fill:url(#SVGID_00000149356262424238939830000006962444504999260046_);}
	.st16{fill-rule:evenodd;clip-rule:evenodd;fill:#E72D5F;}
	.st17{fill:#3CB395;}
	.st18{fill-rule:evenodd;clip-rule:evenodd;fill:#3CB395;}
</style>
<g id="Layer_2" class="st0">
	<rect x="5.7" y="7.6" class="st1" width="247.5" height="228.1"/>
</g>
<g id="Layer_1" class="st0">
	<path class="st2" d="M104.4,42.4c-4.4-5.3-10.9-8.4-17.8-8.4H29c-6.6,0-12,5.4-12,12v12.1v10.1V160c0,6.6,5.4,12,12,12h200
		c6.6,0,12-5.4,12-12V70.1c0-6.6-5.4-12-12-12H117.4L104.4,42.4z"/>
	<defs>
		<filter id="Adobe_OpacityMaskFilter" filterUnits="userSpaceOnUse" x="17" y="62" width="224" height="110">
			<feColorMatrix  type="matrix" values="1 0 0 0 0  0 1 0 0 0  0 0 1 0 0  0 0 0 1 0"/>
		</filter>
	</defs>
	
		<mask maskUnits="userSpaceOnUse" x="17" y="62" width="224" height="110" id="mask0_501_11930_00000081649918554152100850000016654729337992308386_" style="display:inline;">
		
			<linearGradient id="SVGID_1_" gradientUnits="userSpaceOnUse" x1="32.5816" y1="239.5494" x2="213.3495" y2="58.4074" gradientTransform="matrix(1 0 0 -1 0 258)">
			<stop  offset="0" style="stop-color:#05815D"/>
			<stop  offset="1" style="stop-color:#0C575F"/>
		</linearGradient>
		<path style="fill-rule:evenodd;clip-rule:evenodd;fill:url(#SVGID_1_);filter:url(#Adobe_OpacityMaskFilter);" d="M104.4,42.4
			c-4.4-5.3-10.9-8.4-17.8-8.4H29c-6.6,0-12,5.4-12,12v12.1v10.1V160c0,6.6,5.4,12,12,12h200c6.6,0,12-5.4,12-12V70.1
			c0-6.6-5.4-12-12-12H117.4L104.4,42.4z"/>
	</mask>
	<g class="st4">
		<g>
			<path class="st5" d="M92.8,74c5,0,9.8-1.6,13.8-4.6l9.9-7.4H229c6.6,0,12,5.4,12,12v34v52c0,6.6-5.4,12-12,12H29
				c-6.6,0-12-5.4-12-12v-52V86c0-6.6,5.4-12,12-12h58H92.8z"/>
		</g>
	</g>
	
		<linearGradient id="SVGID_00000133500611019815339240000013222451906268221058_" gradientUnits="userSpaceOnUse" x1="17" y1="196" x2="241" y2="48" gradientTransform="matrix(1 0 0 -1 0 258)">
		<stop  offset="0" style="stop-color:#FFE7A2"/>
		<stop  offset="0.9531" style="stop-color:#FFCB3D"/>
	</linearGradient>
	
		<path style="display:inline;fill-rule:evenodd;clip-rule:evenodd;fill:url(#SVGID_00000133500611019815339240000013222451906268221058_);" d="
		M92.8,74c5,0,9.8-1.6,13.8-4.6l9.9-7.4H229c6.6,0,12,5.4,12,12v34v90c0,6.6-5.4,12-12,12H29c-6.6,0-12-5.4-12-12v-90V86
		c0-6.6,5.4-12,12-12h58H92.8z"/>
	
		<linearGradient id="SVGID_00000057838078935829090100000007187267177534981565_" gradientUnits="userSpaceOnUse" x1="16.9254" y1="57.3174" x2="240.9429" y2="54.8172" gradientTransform="matrix(1 0 0 -1 0 258)">
		<stop  offset="0" style="stop-color:#FFCF4E"/>
		<stop  offset="1" style="stop-color:#FFB504"/>
	</linearGradient>
	
		<path style="display:inline;fill-rule:evenodd;clip-rule:evenodd;fill:url(#SVGID_00000057838078935829090100000007187267177534981565_);" d="
		M17,194v4c0,6.6,5.4,12,12,12h200c6.6,0,12-5.4,12-12v-4c0,6.6-5.4,12-12,12H29C22.4,206,17,200.6,17,194z"/>
	
		<linearGradient id="SVGID_00000044869402325207369770000016600649191178434458_" gradientUnits="userSpaceOnUse" x1="17" y1="182" x2="241" y2="182" gradientTransform="matrix(1 0 0 -1 0 258)">
		<stop  offset="0" style="stop-color:#FFECB5"/>
		<stop  offset="1" style="stop-color:#FFDE82"/>
	</linearGradient>
	
		<path style="display:inline;fill-rule:evenodd;clip-rule:evenodd;fill:url(#SVGID_00000044869402325207369770000016600649191178434458_);" d="
		M106.6,69.4c-4,3-8.8,4.6-13.8,4.6H87H29c-6.6,0-12,5.4-12,12v4c0-6.6,5.4-12,12-12h58h5.8c5,0,9.8-1.6,13.8-4.6l9.9-7.4H229
		c6.6,0,12,5.4,12,12v-4c0-6.6-5.4-12-12-12H116.5L106.6,69.4z"/>
</g>
<g id="Layer_1_copy">
	<path class="st9" d="M104.4,42.4c-4.4-5.3-10.9-8.4-17.8-8.4H29c-6.6,0-12,5.4-12,12v12.1v10.1V160c0,6.6,5.4,12,12,12h200
		c6.6,0,12-5.4,12-12V70.1c0-6.6-5.4-12-12-12H117.4L104.4,42.4z"/>
	<defs>
		
			<filter id="Adobe_OpacityMaskFilter_00000079478829048066079170000017194009351487288734_" filterUnits="userSpaceOnUse" x="17" y="62" width="224" height="110">
			<feColorMatrix  type="matrix" values="1 0 0 0 0  0 1 0 0 0  0 0 1 0 0  0 0 0 1 0"/>
		</filter>
	</defs>
	
		<mask maskUnits="userSpaceOnUse" x="17" y="62" width="224" height="110" id="mask0_501_11930_00000142880491604251906030000016884523780071507333_">
		
			<linearGradient id="SVGID_00000000921974671038520030000014104823698224070321_" gradientUnits="userSpaceOnUse" x1="32.5816" y1="239.5494" x2="213.3495" y2="58.4074" gradientTransform="matrix(1 0 0 -1 0 258)">
			<stop  offset="0" style="stop-color:#05815D"/>
			<stop  offset="1" style="stop-color:#0C575F"/>
		</linearGradient>
		
			<path style="fill-rule:evenodd;clip-rule:evenodd;fill:url(#SVGID_00000000921974671038520030000014104823698224070321_);filter:url(#Adobe_OpacityMaskFilter_00000079478829048066079170000017194009351487288734_);" d="
			M104.4,42.4c-4.4-5.3-10.9-8.4-17.8-8.4H29c-6.6,0-12,5.4-12,12v12.1v10.1V160c0,6.6,5.4,12,12,12h200c6.6,0,12-5.4,12-12V70.1
			c0-6.6-5.4-12-12-12H117.4L104.4,42.4z"/>
	</mask>
	<g class="st11">
		<g>
			<path class="st12" d="M92.8,74c5,0,9.8-1.6,13.8-4.6l9.9-7.4H229c6.6,0,12,5.4,12,12v34v52c0,6.6-5.4,12-12,12H29
				c-6.6,0-12-5.4-12-12v-52V86c0-6.6,5.4-12,12-12h58H92.8z"/>
		</g>
	</g>
	
		<linearGradient id="SVGID_00000107564961590859928940000011082954274537014685_" gradientUnits="userSpaceOnUse" x1="17" y1="196" x2="241" y2="48" gradientTransform="matrix(1 0 0 -1 0 258)">
		<stop  offset="0" style="stop-color:#00272D"/>
		<stop  offset="0.9475" style="stop-color:#071E36"/>
	</linearGradient>
	<path style="fill-rule:evenodd;clip-rule:evenodd;fill:url(#SVGID_00000107564961590859928940000011082954274537014685_);" d="
		M92.8,74c5,0,9.8-1.6,13.8-4.6l9.9-7.4H229c6.6,0,12,5.4,12,12v34v90c0,6.6-5.4,12-12,12H29c-6.6,0-12-5.4-12-12v-90V86
		c0-6.6,5.4-12,12-12h58H92.8z"/>
	
		<linearGradient id="SVGID_00000173859441479661547060000005843621065740815255_" gradientUnits="userSpaceOnUse" x1="16.9254" y1="57.3174" x2="240.9429" y2="54.8172" gradientTransform="matrix(1 0 0 -1 0 258)">
		<stop  offset="0" style="stop-color:#01040B"/>
		<stop  offset="1" style="stop-color:#000610"/>
	</linearGradient>
	<path style="fill-rule:evenodd;clip-rule:evenodd;fill:url(#SVGID_00000173859441479661547060000005843621065740815255_);" d="
		M17,194v4c0,6.6,5.4,12,12,12h200c6.6,0,12-5.4,12-12v-4c0,6.6-5.4,12-12,12H29C22.4,206,17,200.6,17,194z"/>
	
		<linearGradient id="SVGID_00000070087911264940648470000014246372947163188394_" gradientUnits="userSpaceOnUse" x1="17" y1="76" x2="241" y2="76">
		<stop  offset="0" style="stop-color:#494C5E"/>
		<stop  offset="1" style="stop-color:#465365"/>
	</linearGradient>
	<path style="fill-rule:evenodd;clip-rule:evenodd;fill:url(#SVGID_00000070087911264940648470000014246372947163188394_);" d="
		M106.6,69.4c-4,3-8.8,4.6-13.8,4.6H87H29c-6.6,0-12,5.4-12,12v4c0-6.6,5.4-12,12-12h58h5.8c5,0,9.8-1.6,13.8-4.6l9.9-7.4H229
		c6.6,0,12,5.4,12,12v-4c0-6.6-5.4-12-12-12H116.5L106.6,69.4z"/>
	<g id="Layer_4">
		<path class="st16" d="M97.5,155.1H88c-1.4,0-2.6-1.1-2.6-2.6v-24.2c0-1.4,1.1-2.6,2.6-2.6h9.5c1.4,0,2.6,1.1,2.6,2.6v24.2
			C100,154,98.9,155.1,97.5,155.1z"/>
		<path class="st16" d="M132.8,169.1h-9.5c-1.4,0-2.6-1.1-2.6-2.6v-50c0-1.4,1.1-2.6,2.6-2.6h9.5c1.4,0,2.6,1.1,2.6,2.6v50
			C135.3,168,134.2,169.1,132.8,169.1z"/>
		<path class="st17" d="M115.1,147.1h-9.5c-1.4,0-2.6-1.1-2.6-2.6v-40.5c0-1.4,1.1-2.6,2.6-2.6h9.5c1.4,0,2.6,1.1,2.6,2.6v40.5
			C117.7,146,116.5,147.1,115.1,147.1z"/>
		<path class="st17" d="M150.4,163.3h-9.5c-1.4,0-2.6-1.1-2.6-2.6v-27.2c0-1.4,1.1-2.6,2.6-2.6h9.5c1.4,0,2.6,1.1,2.6,2.6v27.2
			C153,162.2,151.8,163.3,150.4,163.3z"/>
		<path class="st17" d="M168,145.3h-9.5c-1.4,0-2.6-1.1-2.6-2.6v-35.1c0-1.4,1.1-2.6,2.6-2.6h9.5c1.4,0,2.6,1.1,2.6,2.6v35.1
			C170.6,144.1,169.5,145.3,168,145.3z"/>
		<rect x="91.3" y="118.1" class="st16" width="2.9" height="46.3"/>
		<rect x="126.6" y="108.5" class="st16" width="2.9" height="71.9"/>
		<rect x="108.9" y="83.6" class="st18" width="2.9" height="69"/>
		<rect x="144.2" y="112.6" class="st18" width="2.9" height="69"/>
		<rect x="161.8" y="100.4" class="st18" width="2.9" height="51"/>
	</g>
</g>
</svg>
